<?xml version="1.0" encoding="utf-8"?>
<!--Designed by Vexels.com - 2017 All Rights Reserved - https://vexels.com/terms-and-conditions/-->
<svg version="1.1" id="Layer_1" xmlns="http://www.w3.org/2000/svg" xmlns:xlink="http://www.w3.org/1999/xlink" x="0px" y="0px"
	 viewBox="0 0 1200 1200" enable-background="new 0 0 1200 1200" xml:space="preserve">
<g>
	<path opacity="0.3" fill="#271D1B" d="M1120.571,358.564c1.757-1.909,3.446-3.877,5.064-5.901c0.1-0.125,0.2-0.249,0.299-0.374
		c0.807-1.018,1.598-2.049,2.368-3.095c0.045-0.061,0.088-0.123,0.133-0.183c0.749-1.02,1.479-2.052,2.192-3.097
		c0.06-0.088,0.121-0.175,0.181-0.263c0.73-1.075,1.44-2.163,2.132-3.263c0.074-0.117,0.146-0.236,0.219-0.353
		c0.687-1.101,1.359-2.212,2.007-3.337c0.004-0.006,0.007-0.013,0.011-0.019c0.654-1.134,1.284-2.282,1.898-3.44
		c0.079-0.15,0.158-0.299,0.236-0.449c1.205-2.298,2.331-4.639,3.375-7.021c0.071-0.162,0.142-0.324,0.213-0.486
		c0.517-1.195,1.017-2.398,1.493-3.613c0.015-0.039,0.029-0.078,0.044-0.116c0.46-1.178,0.897-2.367,1.317-3.562
		c0.054-0.153,0.109-0.305,0.162-0.459c0.421-1.216,0.822-2.44,1.202-3.673c0.044-0.142,0.085-0.286,0.128-0.428
		c0.355-1.169,0.691-2.345,1.008-3.528c0.031-0.114,0.063-0.228,0.094-0.342c0.327-1.24,0.631-2.487,0.916-3.741
		c0.047-0.206,0.091-0.413,0.137-0.619c0.277-1.25,0.537-2.505,0.771-3.768c0.002-0.011,0.004-0.021,0.006-0.032
		c0.234-1.271,0.441-2.549,0.631-3.832c0.036-0.239,0.07-0.478,0.104-0.717c0.181-1.278,0.346-2.56,0.482-3.848
		c0.005-0.048,0.009-0.097,0.014-0.145c0.129-1.237,0.233-2.48,0.32-3.727c0.018-0.251,0.036-0.501,0.052-0.753
		c0.08-1.271,0.142-2.545,0.179-3.824c0.005-0.189,0.006-0.379,0.011-0.569c0.027-1.159,0.036-2.321,0.026-3.486
		c-0.002-0.231-0.001-0.462-0.004-0.694c-0.018-1.274-0.059-2.55-0.122-3.83c-0.013-0.263-0.03-0.526-0.044-0.79
		c-0.066-1.177-0.148-2.356-0.252-3.538c-0.014-0.163-0.025-0.326-0.04-0.49c-0.119-1.288-0.266-2.579-0.43-3.872
		c-0.038-0.296-0.078-0.591-0.118-0.887c-0.178-1.314-0.371-2.628-0.597-3.945c-10.377-60.478-67.822-101.097-128.3-90.712
		c-1.523,0.261-3.029,0.561-4.527,0.881c-0.203,0.044-0.407,0.084-0.609,0.129c-1.429,0.314-2.844,0.657-4.248,1.024
		c-0.24,0.063-0.479,0.126-0.719,0.19c-1.406,0.377-2.801,0.777-4.182,1.206c-0.176,0.055-0.35,0.112-0.526,0.168
		c-2.908,0.919-5.757,1.95-8.543,3.089c-0.139,0.057-0.28,0.112-0.42,0.17c-1.35,0.558-2.683,1.144-4.003,1.752
		c-0.174,0.08-0.348,0.161-0.521,0.242c-1.323,0.618-2.631,1.258-3.922,1.925c-0.115,0.059-0.228,0.12-0.342,0.18
		c-2.509,1.307-4.956,2.704-7.338,4.187c-0.162,0.101-0.325,0.202-0.487,0.303c-1.107,0.697-2.203,1.41-3.282,2.144
		c-0.044,0.03-0.087,0.061-0.131,0.091c-1.047,0.714-2.077,1.448-3.097,2.196c-0.128,0.094-0.258,0.187-0.386,0.282
		c-1.041,0.771-2.067,1.559-3.078,2.364c-0.107,0.085-0.212,0.172-0.318,0.257c-0.973,0.781-1.933,1.576-2.877,2.388
		c-0.066,0.057-0.133,0.112-0.199,0.169c-0.981,0.847-1.944,1.712-2.893,2.591c-0.129,0.12-0.257,0.24-0.385,0.361
		c-1.894,1.771-3.723,3.605-5.484,5.5c-0.126,0.135-0.251,0.271-0.376,0.407c-1.754,1.906-3.441,3.871-5.057,5.892
		c-0.105,0.132-0.211,0.263-0.316,0.395c-0.801,1.012-1.587,2.036-2.353,3.075c-0.053,0.072-0.105,0.146-0.159,0.219
		c-0.736,1.003-1.454,2.019-2.156,3.046c-0.069,0.101-0.14,0.202-0.209,0.303c-0.723,1.065-1.427,2.143-2.113,3.233
		c-0.083,0.132-0.164,0.265-0.246,0.397c-0.672,1.077-1.328,2.163-1.963,3.263c-0.016,0.027-0.032,0.054-0.048,0.081
		c-0.646,1.121-1.269,2.256-1.876,3.4c-0.088,0.166-0.176,0.334-0.263,0.501c-1.194,2.278-2.31,4.6-3.346,6.96
		c-0.08,0.182-0.16,0.363-0.239,0.546c-0.511,1.181-1.005,2.37-1.475,3.57c-0.023,0.058-0.044,0.118-0.067,0.176
		c-0.449,1.151-0.876,2.312-1.287,3.48c-0.061,0.173-0.123,0.346-0.183,0.519c-0.417,1.203-0.814,2.414-1.189,3.633
		c-0.049,0.159-0.095,0.318-0.143,0.477c-0.347,1.146-0.677,2.299-0.988,3.459c-0.035,0.131-0.073,0.262-0.107,0.394
		c-0.324,1.229-0.625,2.466-0.908,3.709c-0.05,0.219-0.097,0.438-0.146,0.657c-0.271,1.228-0.527,2.46-0.757,3.701
		c-0.006,0.03-0.012,0.06-0.018,0.09c-0.233,1.261-0.438,2.53-0.627,3.803c-0.037,0.25-0.073,0.5-0.109,0.75
		c-0.18,1.27-0.344,2.545-0.479,3.826c-0.006,0.057-0.01,0.116-0.017,0.173c-0.128,1.227-0.231,2.461-0.318,3.697
		c-0.018,0.255-0.037,0.511-0.053,0.767c-0.08,1.267-0.142,2.537-0.179,3.812c-0.006,0.195-0.007,0.391-0.011,0.587
		c-0.027,1.153-0.036,2.309-0.026,3.468c0.002,0.233,0.001,0.466,0.004,0.699c0.018,1.272,0.059,2.548,0.121,3.827
		c0.013,0.265,0.03,0.53,0.045,0.795c0.026,0.47,0.047,0.94,0.079,1.411c-17.28,1.335-35.828,7.815-51.871,13.51
		c-2.12,0.753-4.248,1.465-6.382,2.157c-0.685,0.222-1.372,0.433-2.058,0.65c-1.474,0.465-2.949,0.922-4.428,1.363
		c-0.768,0.229-1.537,0.455-2.307,0.678c-1.457,0.423-2.917,0.835-4.378,1.238c-0.711,0.196-1.421,0.396-2.133,0.588
		c-1.794,0.485-3.591,0.957-5.391,1.419c-0.345,0.089-0.69,0.182-1.035,0.27c-2.171,0.553-4.345,1.091-6.522,1.621
		c-0.66,0.161-1.321,0.318-1.982,0.477c-1.574,0.379-3.149,0.757-4.725,1.129c-0.853,0.201-1.706,0.402-2.56,0.603
		c-1.728,0.406-3.458,0.811-5.187,1.214c-1.652,0.386-3.303,0.773-4.954,1.161c-0.727,0.17-1.454,0.339-2.181,0.511l0.002,0.001
		c-11.719,2.766-23.415,5.672-34.945,9.393c-12.171,3.928-24.511,8.051-36.89,12.394c0.007-0.007,0.014-0.014,0.022-0.02
		c-2.647,0.929-5.296,1.869-7.946,2.819c-0.243,0.087-0.485,0.176-0.727,0.264c-3.114,1.119-6.228,2.259-9.342,3.41
		c-0.887,0.328-1.773,0.657-2.659,0.987c-3.19,1.19-6.378,2.392-9.562,3.617c-0.187,0.072-0.374,0.142-0.561,0.214
		c-3.318,1.279-6.629,2.585-9.935,3.904c-0.876,0.35-1.75,0.702-2.626,1.055c-2.9,1.169-5.794,2.352-8.681,3.554
		c-0.483,0.201-0.968,0.397-1.45,0.599c-3.264,1.367-6.515,2.76-9.756,4.172c-0.843,0.367-1.684,0.739-2.526,1.109
		c-2.723,1.198-5.436,2.412-8.139,3.644c-0.646,0.295-1.296,0.584-1.941,0.88c-3.2,1.47-6.383,2.967-9.55,4.486
		c-0.767,0.368-1.528,0.742-2.292,1.112c-2.623,1.272-5.231,2.561-7.827,3.868c-0.728,0.366-1.458,0.728-2.183,1.098
		c-3.121,1.589-6.222,3.203-9.299,4.846c-0.652,0.348-1.297,0.704-1.947,1.054c-2.565,1.383-5.112,2.786-7.641,4.209
		c-0.762,0.428-1.526,0.854-2.285,1.286c-0.485,0.276-0.976,0.544-1.459,0.821c-1.756,1.008-3.481,2.048-5.217,3.075
		c-1.068,0.632-2.149,1.252-3.21,1.892c-3.191,1.925-6.354,3.878-9.476,5.875c-2.761,1.766-5.521,3.557-8.28,5.36
		c-0.835,0.546-1.668,1.097-2.503,1.646c-2.001,1.316-4,2.642-5.999,3.977c-0.868,0.58-1.735,1.159-2.602,1.742
		c-2.352,1.581-4.701,3.175-7.048,4.781c-0.41,0.28-0.82,0.556-1.229,0.837c-2.742,1.882-5.479,3.783-8.213,5.698
		c-0.76,0.532-1.517,1.069-2.275,1.602c-2.029,1.428-4.054,2.864-6.077,4.309c-0.872,0.623-1.743,1.246-2.614,1.872
		c-2.136,1.535-4.268,3.08-6.397,4.633c-0.611,0.446-1.223,0.887-1.833,1.334c-2.705,1.981-5.402,3.977-8.092,5.984
		c-0.639,0.477-1.274,0.958-1.912,1.436c-2.085,1.563-4.165,3.132-6.239,4.71c-0.857,0.652-1.713,1.305-2.569,1.96
		c-2.003,1.532-4.001,3.072-5.994,4.617c-0.71,0.55-1.421,1.097-2.129,1.649c-2.649,2.064-5.289,4.137-7.917,6.221
		c-0.457,0.363-0.91,0.728-1.367,1.092c-2.187,1.74-4.366,3.486-6.537,5.24c-0.826,0.667-1.649,1.336-2.473,2.004
		c-1.896,1.539-3.784,3.083-5.666,4.632c-0.769,0.632-1.538,1.263-2.305,1.897c-0.374,0.31-0.752,0.617-1.126,0.927l0.017-0.002
		c-10.754,8.917-21.284,17.966-31.501,27.094c-40.496,36.18-76.805,76.777-117.76,112.46
		c-47.904,41.738-102.79,73.533-159.752,101.856c-3.812,1.896-7.637,3.772-11.466,5.638c-0.954,0.465-1.909,0.929-2.865,1.392
		c-3.554,1.724-7.113,3.44-10.678,5.143c-0.303,0.145-0.606,0.292-0.909,0.436c-3.853,1.838-7.713,3.662-11.576,5.48
		c-0.989,0.465-1.979,0.93-2.969,1.394c-3.609,1.693-7.221,3.38-10.836,5.059c-0.243,0.113-0.486,0.227-0.729,0.34
		c-3.917,1.818-7.837,3.628-11.758,5.434c-0.998,0.46-1.995,0.919-2.993,1.378c-3.703,1.703-7.407,3.404-11.11,5.102
		c-0.098,0.045-0.196,0.09-0.295,0.135c-4.58,2.098-9.158,4.194-13.733,6.289c-4.132,1.892-8.263,3.784-12.387,5.678
		c7.654,18.061,15.201,36.269,19.049,55.563c1.135,5.689,2.116,11.352,2.962,16.998c0.376,2.508,0.711,5.01,1.027,7.511
		c0.078,0.619,0.154,1.237,0.229,1.855c0.301,2.5,0.582,4.998,0.822,7.492c0.007,0.074,0.012,0.148,0.019,0.222
		c0.231,2.427,0.423,4.852,0.594,7.275c0.044,0.615,0.086,1.229,0.125,1.844c0.16,2.482,0.298,4.963,0.393,7.442
		c0.707,18.512-0.417,36.958-3.705,55.565c-1.007,5.696-2.196,11.406-3.618,17.14c-7.661,30.881-22.585,60.289-42.044,85.791
		c55.217-22.225,108.391-49.738,158.794-80.368c91.329-55.502,175.097-124.254,237.777-211.444
		c15.176-21.11,28.715-43.334,42.361-65.477c0.792-1.284,1.586-2.566,2.378-3.85c0.947-1.534,1.893-3.069,2.843-4.601
		c0.869-1.401,1.743-2.798,2.615-4.197c0.866-1.389,1.728-2.78,2.598-4.167c0.895-1.427,1.799-2.847,2.699-4.27
		c0.853-1.35,1.702-2.703,2.56-4.048c0.917-1.437,1.847-2.865,2.771-4.297c0.852-1.322,1.698-2.648,2.558-3.964
		c0.985-1.508,1.986-3.004,2.98-4.505c0.813-1.227,1.617-2.461,2.438-3.683c1.056-1.573,2.134-3.132,3.204-4.695
		c0.779-1.14,1.548-2.287,2.335-3.421c1.192-1.717,2.409-3.415,3.62-5.118c0.686-0.964,1.358-1.938,2.051-2.898
		c1.915-2.655,3.857-5.292,5.828-7.908c1.601-2.125,3.239-4.211,4.894-6.279c0.323-0.403,0.644-0.808,0.969-1.209
		c1.608-1.987,3.24-3.95,4.896-5.888c0.307-0.359,0.618-0.715,0.927-1.073c1.622-1.88,3.262-3.742,4.925-5.579
		c0.132-0.146,0.262-0.294,0.394-0.44c1.748-1.922,3.523-3.815,5.314-5.693c0.366-0.384,0.732-0.768,1.1-1.15
		c1.768-1.836,3.552-3.654,5.357-5.451c0.285-0.284,0.573-0.564,0.859-0.846c1.72-1.7,3.454-3.384,5.205-5.051
		c0.234-0.222,0.465-0.447,0.699-0.669c1.866-1.768,3.752-3.516,5.65-5.25c0.391-0.357,0.782-0.714,1.175-1.07
		c1.901-1.725,3.813-3.437,5.743-5.132c0.224-0.197,0.451-0.392,0.676-0.589c1.836-1.607,3.684-3.2,5.542-4.782
		c0.309-0.263,0.616-0.527,0.925-0.79c1.955-1.657,3.922-3.301,5.899-4.935c0.397-0.328,0.795-0.655,1.193-0.983
		c2.009-1.653,4.025-3.298,6.054-4.93c0.107-0.087,0.216-0.172,0.323-0.259c1.993-1.602,3.995-3.194,6.003-4.78
		c0.351-0.277,0.702-0.556,1.054-0.833c2.023-1.593,4.052-3.178,6.086-4.757c0.379-0.294,0.759-0.589,1.14-0.883
		c2.075-1.607,4.154-3.21,6.237-4.807l0,0c2.147-1.645,4.299-3.285,6.452-4.923c0.39-0.297,0.78-0.594,1.17-0.89
		c2.095-1.592,4.191-3.182,6.288-4.771c8.201-6.214,16.406-12.415,24.523-18.698c45.182-34.972,85.786-74.215,140.561-93.218
		c26.742-9.278,53.339-24.124,77.788-39.098l0.002,0.001c0.187-0.115,0.368-0.229,0.554-0.343c3.045-1.868,6.063-3.737,9.037-5.597
		c1.337-0.836,2.663-1.624,3.982-2.388c0.457-0.265,0.912-0.526,1.367-0.783c0.463-0.261,0.925-0.52,1.386-0.773
		c0.531-0.291,1.06-0.575,1.589-0.855c0.455-0.241,0.91-0.482,1.363-0.716c0.532-0.274,1.062-0.539,1.591-0.802
		c0.446-0.222,0.892-0.445,1.336-0.659c0.533-0.257,1.065-0.505,1.596-0.753c0.438-0.204,0.876-0.41,1.313-0.607
		c0.534-0.241,1.065-0.472,1.597-0.703c0.431-0.187,0.862-0.377,1.291-0.558c0.544-0.229,1.086-0.447,1.628-0.667
		c0.412-0.167,0.825-0.338,1.236-0.499c0.566-0.222,1.129-0.432,1.693-0.644c0.387-0.146,0.775-0.296,1.162-0.437
		c0.6-0.219,1.198-0.426,1.797-0.634c0.349-0.121,0.698-0.248,1.046-0.366c0.691-0.234,1.381-0.456,2.071-0.676
		c0.254-0.081,0.508-0.168,0.762-0.248c1.898-0.595,3.792-1.144,5.686-1.653c0.251-0.068,0.504-0.13,0.755-0.196
		c0.692-0.182,1.383-0.363,2.075-0.536c0.338-0.084,0.677-0.163,1.015-0.245c0.607-0.147,1.214-0.295,1.821-0.435
		c0.372-0.086,0.745-0.167,1.117-0.25c0.575-0.129,1.15-0.259,1.727-0.383c0.387-0.083,0.775-0.162,1.162-0.243
		c0.565-0.118,1.13-0.236,1.695-0.349c0.081-0.016,0.162-0.032,0.243-0.048c23.959,33.813,65.949,52.8,109.518,45.321
		c1.512-0.26,3.009-0.557,4.496-0.874c0.219-0.047,0.439-0.091,0.657-0.139c1.409-0.31,2.805-0.649,4.191-1.01
		c0.267-0.07,0.533-0.14,0.799-0.211c1.375-0.369,2.74-0.76,4.09-1.179c0.224-0.069,0.445-0.143,0.668-0.213
		c1.393-0.441,2.777-0.902,4.142-1.395c0.047-0.017,0.093-0.034,0.14-0.051c1.354-0.491,2.69-1.012,4.016-1.552
		c0.218-0.089,0.437-0.175,0.655-0.265c1.281-0.531,2.547-1.088,3.801-1.663c0.253-0.116,0.506-0.233,0.758-0.352
		c1.251-0.586,2.489-1.191,3.711-1.821c0.2-0.103,0.398-0.21,0.597-0.314c1.283-0.671,2.555-1.359,3.805-2.077
		c0.002-0.001,0.003-0.002,0.005-0.003c0.007-0.004,0.014-0.009,0.022-0.013c1.093-0.628,2.168-1.279,3.235-1.941
		c0.228-0.141,0.455-0.282,0.682-0.425c1.06-0.669,2.11-1.352,3.144-2.054c0.108-0.074,0.215-0.15,0.322-0.224
		c0.97-0.664,1.926-1.344,2.872-2.037c0.173-0.126,0.347-0.251,0.518-0.379c1.012-0.75,2.009-1.516,2.993-2.298
		c0.142-0.113,0.282-0.228,0.423-0.342c0.929-0.746,1.845-1.506,2.747-2.28c0.095-0.081,0.192-0.161,0.286-0.243
		c0.966-0.835,1.914-1.686,2.849-2.552c0.143-0.133,0.285-0.266,0.427-0.4c1.884-1.763,3.704-3.589,5.457-5.474
		C1120.317,358.84,1120.444,358.702,1120.571,358.564z"/>
	<g>
		<g>
			<path fill="#EFEBE8" d="M95.662,924.944c-1.006,5.696-2.196,11.406-3.618,17.14c-7.661,30.881-22.585,60.289-42.044,85.791
				c55.217-22.225,108.391-49.738,158.794-80.368c91.329-55.502,175.097-124.254,237.777-211.445
				c30.507-42.437,54.402-89.378,85.84-131.1c34.721-46.077,82.554-78.464,127.671-113.387
				c45.182-34.972,85.786-74.215,140.561-93.218c30.281-10.505,60.382-28.151,87.381-45.037
				c33.093-20.696,60.181-18.684,97.305-26.774c1.708-1.309,3.586-2.361,5.338-3.341c4.757-2.662,8.587-4.792,5.564-10.056
				c-18.96,4.388-37.336,2.422-56.47,5.368c-19.605,3.019-33.69,11.182-51.068,20.056c-26.912,13.741-56.507,25.414-85.137,35.055
				c-57.025,19.202-106.538,53.657-155.375,88.237c-45.104,31.938-91.753,64.841-129.058,105.945
				c-36.896,40.654-66.34,87.486-102.254,129.01c-73.771,85.297-172.822,144.802-269.972,199.844
				C131.036,905.65,111.257,913.882,95.662,924.944"/>
			<path fill="#17628C" d="M95.662,924.944c15.595-11.062,35.373-19.294,51.235-28.28c97.15-55.042,196.201-114.546,269.972-199.844
				c35.913-41.524,65.358-88.356,102.254-129.01c37.306-41.104,83.955-74.007,129.058-105.945
				c48.836-34.58,98.349-69.035,155.375-88.237c28.63-9.641,58.225-21.314,85.137-35.055c17.379-8.874,31.463-17.037,51.068-20.056
				c19.134-2.946,37.509-0.98,56.47-5.368c-4.135-7.203-6.203-10.804-10.338-18.008c-19.835,4.934-37.099,1.408-56.939,3.297
				c-19.045,1.814-36.245,9.613-53.624,17.092c-28.565,12.293-59.096,20.105-88.595,29.886
				c-57.129,18.945-112.801,47.722-162.898,81.067c-46.412,30.892-93.574,65.721-133.426,104.807
				c-39.906,39.139-73.647,84.027-113.18,123.542c-79.232,79.198-182.603,129.275-281.072,180.905
				C100.646,865.683,100.936,895.106,95.662,924.944"/>
			<path fill="#C4161C" d="M93.196,818.74c1.135,5.689,2.115,11.352,2.962,16.998c98.469-51.629,201.84-101.707,281.072-180.905
				c39.533-39.516,73.273-84.403,113.18-123.542c39.852-39.086,87.014-73.915,133.426-104.807
				c50.097-33.345,105.77-62.122,162.898-81.067c29.499-9.781,60.031-17.594,88.595-29.886
				c17.379-7.479,34.579-15.277,53.624-17.092c19.84-1.89,37.104,1.636,56.939-3.297l-10.339-18.008
				c-21.067,5.598-36.128,0.494-56.811,1.162c-18.32,0.592-38.419,7.612-55.631,13.724c-29.826,10.589-61.06,14.756-91.164,24.471
				c-59.262,19.124-122.475,42.567-175.105,76.223c-48.891,31.266-97.606,68.589-140.88,107.251
				c-40.496,36.18-76.805,76.777-117.76,112.46c-76.81,66.923-171.569,108.286-264.056,150.754
				C81.801,781.238,89.348,799.446,93.196,818.74"/>
			<path fill="#CAC6C3" d="M488.877,670.675c13.804-22.4,27.713-44.716,43.534-65.712c28.499-37.82,65.833-66.418,103.247-94.765
				c1.03-4.098,2.122-8.176,3.302-12.228c3.968-13.625,8.912-26.898,14.566-39.887c-1.423,1.006-2.851,2.016-4.273,3.023
				c-0.358,0.253-0.714,0.505-1.071,0.759l0,0c-45.104,31.938-91.753,64.841-129.058,105.945c-0.002,0.002-0.007,0.007-0.009,0.01
				C513.446,603.784,502.387,637.413,488.877,670.675"/>
			<path fill="#135376" d="M519.114,567.82c0.002-0.003,0.006-0.007,0.009-0.01c37.306-41.104,83.955-74.007,129.058-105.945l0,0
				c0.358-0.253,0.714-0.505,1.071-0.759c1.422-1.007,2.85-2.017,4.273-3.023c10.847-24.919,24.303-48.79,38.471-72.067
				c-8.348,4.373-16.611,8.912-24.763,13.592c-0.013,0.007-0.024,0.014-0.037,0.021c-0.003,0.002-0.011,0.006-0.014,0.008
				c-14.594,8.379-28.854,17.219-42.688,26.407c-0.22,0.147-0.438,0.291-0.659,0.438l0,0
				c-34.92,23.243-70.265,48.715-102.601,76.551c1.809,9.414,2.039,19.416,1.642,27.994
				C522.293,543.601,521.003,555.84,519.114,567.82"/>
			<path fill="#CAC6C3" d="M985.329,326.547c1.25-0.958,2.591-1.778,3.906-2.533c0.482-0.277,0.961-0.545,1.431-0.808
				c0.469-0.263,0.929-0.52,1.375-0.776c4.071-2.337,6.914-4.535,4.189-9.28c-18.96,4.388-37.336,2.422-56.47,5.368
				c-19.605,3.019-33.69,11.182-51.068,20.056c-7.346,3.751-14.892,7.348-22.563,10.791c4.058,3.555,8.141,6.92,12.303,9.898
				c3.236-1.982,6.436-3.967,9.592-5.941c1.499-0.937,2.989-1.83,4.464-2.677C923.595,332.785,949.887,334.271,985.329,326.547"/>
			<path fill="#135376" d="M996.231,313.149L996.231,313.149L996.231,313.149c-4.135-7.203-6.203-10.804-10.338-18.008l0,0
				c-19.835,4.934-37.099,1.408-56.939,3.297c-19.045,1.814-36.245,9.613-53.624,17.092c-10.78,4.639-21.84,8.64-33.019,12.35
				c8.142,6.947,15.937,14.577,23.82,21.483c7.671-3.443,15.218-7.04,22.563-10.791c17.379-8.874,31.463-17.037,51.068-20.056
				C958.895,315.571,977.271,317.536,996.231,313.149L996.231,313.149 M99.372,869.463c18.097-15.67,33.862-34.075,44.907-55.249
				c0.836-1.603,1.645-3.221,2.427-4.847c-15.006,7.857-30.013,15.63-44.921,23.425c-0.193,0.101-0.379,0.198-0.571,0.299
				c-0.138,0.073-0.277,0.145-0.416,0.218c-0.319,0.167-0.645,0.337-0.964,0.504c-0.319,0.167-0.635,0.333-0.954,0.499
				c-0.517,0.271-1.034,0.541-1.551,0.813c-0.391,0.205-0.781,0.409-1.171,0.614l0,0l0,0l0,0
				C97.851,847.037,98.947,858.262,99.372,869.463"/>
			<path fill="#A61318" d="M521.235,503.035c32.336-27.836,67.681-53.308,102.601-76.551l0,0c0.22-0.147,0.438-0.292,0.659-0.438
				c13.834-9.188,28.094-18.029,42.688-26.407c0.003-0.002,0.011-0.006,0.014-0.008l0,0c0.013-0.007,0.024-0.014,0.037-0.021
				c8.153-4.68,16.416-9.219,24.764-13.593c1.101-1.808,2.204-3.61,3.312-5.411c11.438-18.591,23.575-37.256,39.771-51.743
				c-41.205,14.456-82.869,31.5-120.334,53.008c-6.088,3.495-12.057,7.103-17.903,10.842
				c-37.351,23.886-74.598,51.306-109.397,80.159c8.776-1.266,16.12-0.308,20.938,4.003
				C515.387,483.138,519.256,492.735,521.235,503.035 M985.893,295.141L985.893,295.141l-10.339-18.008
				c-21.067,5.598-36.128,0.494-56.811,1.162c-18.32,0.592-38.419,7.612-55.631,13.724c-18.403,6.534-37.342,10.622-56.221,15.078
				c0.794,0.21,1.586,0.438,2.374,0.684c12.119,3.781,22.853,11.404,33.046,20.1c11.179-3.71,22.24-7.711,33.019-12.35
				c17.379-7.479,34.579-15.277,53.624-17.092C948.794,296.549,966.058,300.075,985.893,295.141 M146.706,809.366
				c14.479-30.131,19.914-63.958,31.998-95.212c-34.452,17.139-69.666,33.002-104.557,49.023
				c7.654,18.061,15.201,36.269,19.049,55.563c1.135,5.689,2.115,11.352,2.962,16.998l0,0l0,0c0.391-0.205,0.78-0.409,1.171-0.614
				c0.517-0.271,1.034-0.541,1.551-0.813c0.319-0.167,0.635-0.333,0.954-0.499c0.319-0.167,0.645-0.337,0.964-0.504
				c0.138-0.072,0.277-0.145,0.416-0.218c0.193-0.101,0.379-0.198,0.571-0.299C116.693,824.997,131.7,817.223,146.706,809.366"/>
		</g>
		<g>
			<path fill="#F2EBE3" d="M916.339,289.824c-10.377-60.477,30.231-117.922,90.716-128.302
				c60.478-10.385,117.923,30.234,128.3,90.712c10.379,60.481-30.229,117.924-90.711,128.303
				C984.165,390.92,926.723,350.306,916.339,289.824"/>
			<path fill="#271D1B" d="M995.861,259.763c12.812-34.708-2.009-62.88-25.337-62.915c-17.669-0.026-35.361,16.843-43.048,37.669
				c-7.691,20.826-5.202,45.147,8.247,56.605C953.476,306.254,983.051,294.465,995.861,259.763"/>
			<path fill="#271D1B" d="M1031.12,302.361c-36.459,6.26-53.446,33.183-41.813,53.399c8.813,15.313,32.263,22.204,54.146,18.449
				c21.88-3.755,41.695-18.071,44.897-35.445C1092.577,315.824,1067.584,296.103,1031.12,302.361"/>
			<path fill="#CB1716" d="M1013.462,266.261c-4.117,11.161-9.469,20.406-15.544,27.764c8.324-4.601,18.355-8.152,30.034-10.157
				c11.721-2.01,22.402-1.997,31.815-0.417c-8.145-4.908-16.236-11.819-23.814-20.93c-7.604-9.147-12.934-18.408-16.27-27.344
				C1019.505,244.678,1017.567,255.144,1013.462,266.261z"/>
			<path fill="#CB1716" d="M1126.535,270.861c-7.534,16.107-24.001,24.116-42.849,21.443c15.992,10.22,23.264,26.977,18.536,44.077
				c-0.953,3.448-2.381,6.775-4.214,9.953c22.358-21.464,34.797-52.52,31.66-85.168
				C1128.992,264.555,1127.964,267.808,1126.535,270.861 M1113.589,304.063l-1.687,4.918l-3.232-4.075l-4.918-1.688l4.076-3.232
				l1.689-4.918l3.229,4.073l4.918,1.69L1113.589,304.063"/>
			<path fill="#CB1716" d="M1015.391,210.028c0.859-18.958,11.731-33.629,28.902-38.089c3.175-0.823,6.46-1.244,9.815-1.312
				c-14.482-4.09-30.08-5.093-45.902-2.378c-15.675,2.69-29.922,8.752-42.14,17.311c3.071-0.987,6.19-1.641,9.331-1.916
				C993.113,182.117,1008.281,192.377,1015.391,210.028 M1006.641,178.998l-0.998-5.103l4.834,1.912l5.107-0.997l-1.916,4.829
				l1,5.106l-4.837-1.908l-5.103,0.993L1006.641,178.998"/>
			<path fill="#CB1716" d="M978.285,310.317c-16.841,8.736-34.991,6.656-47.437-5.991c-2.372-2.407-4.429-5.138-6.201-8.113
				c7.853,31.69,29.739,56.76,57.761,69.631c-2.654-2.316-5.001-4.884-6.972-7.702C965.253,343.564,966.551,325.296,978.285,310.317
				 M951.722,334.375l-0.764-5.144l-3.415-3.921l5.146-0.76l3.92-3.416l0.762,5.141l3.415,3.921l-5.145,0.76L951.722,334.375"/>
			<path fill="#271D1B" d="M1050.384,250.526c23.653,28.445,55.461,29.694,67.156,9.514c8.852-15.29,3.09-39.043-11.101-56.117
				c-14.193-17.07-36.492-27.073-53.145-21.158C1031.313,190.573,1026.734,222.08,1050.384,250.526"/>
			<path fill="#109BE0" d="M1107.119,247.507c7.116-9.685,3.741-26.398-6.515-38.736c-10.253-12.332-26.072-18.705-36.892-13.477
				c-13.044,6.305-14.081,26.517,0.342,43.866C1078.476,256.505,1098.54,259.183,1107.119,247.507 M941.367,275.831
				c11.984,8.152,30.005-1.062,37.816-22.226c7.815-21.159,0.099-39.874-14.302-41.466c-11.946-1.323-24.732,9.957-30.287,25.004
				C929.035,252.191,931.426,269.077,941.367,275.831 M1005.371,353.003c4.826,11.008,20.987,16.441,36.799,13.726
				c15.809-2.711,29.237-13.224,30.119-25.209c1.064-14.453-15.925-25.452-38.158-21.634
				C1011.895,323.7,999.552,339.733,1005.371,353.003"/>
			<path fill="#1573B0" d="M1107.119,247.507c7.116-9.685,3.741-26.398-6.515-38.736c-10.253-12.332-26.072-18.705-36.892-13.477
				c-13.044,6.305-14.081,26.517,0.342,43.866C1078.476,256.505,1098.54,259.183,1107.119,247.507 M941.367,275.831
				c11.984,8.152,30.005-1.062,37.816-22.226c7.815-21.159,0.099-39.874-14.302-41.466c-11.946-1.323-24.732,9.957-30.287,25.004
				C929.035,252.191,931.426,269.077,941.367,275.831 M1005.371,353.003c4.826,11.008,20.987,16.441,36.799,13.726
				c15.809-2.711,29.237-13.224,30.119-25.209c1.064-14.453-15.925-25.452-38.158-21.634
				C1011.895,323.7,999.552,339.733,1005.371,353.003"/>
			<path fill="#F2EBE3" d="M1050.59,346.425l3.528-5.605l7.192-4.129l-7.515-1.718l-4.585-5.055l-3.622,6.464l-7.017,4.214
				l7.666,1.576L1050.59,346.425z M962.661,225.844c0.584-1.589,0.12-3.055-1.026-3.277c-1.125-0.21-2.491,0.868-3.056,2.411
				c-0.569,1.545-0.148,3,0.964,3.263C960.666,228.502,962.071,227.433,962.661,225.844z M1079.774,224.954l-2.472-7.427
				l1.507-5.896l-6.618-0.249l-7.168-4.166l2.266,7.368l-2.088,6.497l7.408-0.096L1079.774,224.954z M1099.707,239.479
				c0.749-0.867,0.493-2.584-0.559-3.85c-1.051-1.264-2.523-1.627-3.305-0.797c-0.796,0.844-0.567,2.595,0.514,3.899
				C1097.442,240.034,1098.946,240.365,1099.707,239.479z M1079.178,233.362c-2.061,1.84-1.832,5.737,0.582,8.643
				c2.417,2.902,5.97,3.558,7.875,1.532c1.839-1.956,1.446-5.696-0.82-8.415C1084.557,232.402,1081.165,231.59,1079.178,233.362z
				 M956.283,263.089l6.672-1.444l-3.789-6.364l-0.141-8.186l-5.199,5.853l-5.861,1.643l3.091,5.859l-0.023,8.29L956.283,263.089z
				 M973.793,238.582c1.309-3.542,0.096-6.951-2.61-7.584c-2.609-0.614-5.652,1.594-6.879,4.91c-1.222,3.321-0.228,6.665,2.3,7.501
				C969.222,244.272,972.485,242.124,973.793,238.582z M1016.023,350.601c0.381,1.078,1.996,1.717,3.618,1.44
				c1.622-0.281,2.671-1.373,2.344-2.464c-0.338-1.11-1.966-1.789-3.639-1.503C1016.679,348.358,1015.639,349.501,1016.023,350.601z
				 M1026.246,341.616c3.483-0.597,5.885-3.131,5.341-5.74c-0.562-2.704-4.053-4.454-7.776-3.811
				c-3.719,0.634-6.064,3.389-5.263,6.052C1019.326,340.683,1022.757,342.21,1026.246,341.616z"/>
			<path fill="#E8D6C4" d="M1014.215,182.441l-0.548-2.802l1.916-4.829l-5.107,0.997l-4.834-1.912l0.998,5.103l-1.914,4.832
				l5.103-0.993l0.514,0.202c0.134-0.023,0.262-0.046,0.392-0.069C1011.897,182.772,1013.058,182.596,1014.215,182.441
				 M959.102,330.446c-1.918-2.153-3.736-4.398-5.445-6.739l-0.969,0.844l-5.146,0.76l3.415,3.921l0.764,5.144l3.919-3.419
				L959.102,330.446 M1111.902,308.981l1.687-4.918l4.074-3.231l-4.918-1.69l-1.474-1.86c-0.794,2.573-1.702,5.106-2.718,7.583
				l0.116,0.042L1111.902,308.981 M1088.806,334.44c-0.037,1.423-0.188,2.868-0.456,4.325c-2.017,10.948-10.628,20.679-22.2,27.323
				c-6.792,3.899-14.603,6.734-22.697,8.122c-21.883,3.755-45.333-3.136-54.146-18.449c-0.769-1.333-1.41-2.697-1.933-4.081
				c-6.703-3.206-12.983-7.234-18.685-11.976c0.525,6.435,2.752,12.72,6.746,18.439c1.97,2.819,4.317,5.386,6.972,7.702
				c-28.022-12.871-49.908-37.94-57.761-69.631c1.772,2.975,3.829,5.705,6.201,8.113c4.869,4.947,10.611,8.278,16.803,9.975
				c-3.514-6.35-6.293-13.215-8.203-20.495c-1.289-0.775-2.533-1.668-3.724-2.684c-13.449-11.458-15.938-35.778-8.247-56.605
				c5.2-14.09,14.981-26.367,26.236-32.828c5.38-3.089,11.099-4.849,16.812-4.841c1.662,0.002,3.283,0.148,4.853,0.429
				c1.935-1.326,3.931-2.581,5.981-3.757c4.318-2.479,8.878-4.613,13.657-6.366c-5.902-2.854-12.557-4.117-19.616-3.51
				c-3.141,0.275-6.26,0.929-9.331,1.916c2.538-1.777,5.161-3.447,7.87-5.002c10.326-5.928,21.852-10.178,34.271-12.308
				c15.822-2.715,31.419-1.712,45.902,2.378c-3.355,0.068-6.64,0.489-9.815,1.312c-3.446,0.896-6.641,2.205-9.549,3.874
				c-2.831,1.625-5.393,3.592-7.658,5.862c7.51,0.095,14.858,1.139,21.912,3.035c1.344-0.754,2.782-1.406,4.295-1.945
				c16.653-5.915,38.952,4.089,53.145,21.158c14.192,17.074,19.953,40.827,11.101,56.117c-0.789,1.36-1.669,2.623-2.63,3.786
				c0.615,7.509,0.273,14.909-0.937,22.074c5.294-3.669,9.613-8.733,12.563-15.039c1.429-3.053,2.457-6.306,3.133-9.694
				c3.137,32.648-9.302,63.703-31.66,85.168c1.833-3.178,3.261-6.506,4.214-9.953c1.84-6.648,1.862-13.244,0.266-19.424
				C1098.674,323.318,1094.078,329.195,1088.806,334.44 M1081.176,367.42c39.278-22.554,62.286-67.946,54.179-115.185
				c-10.377-60.478-67.822-101.097-128.3-90.712c-13.243,2.274-25.522,6.8-36.533,13.122
				c-39.281,22.551-62.288,67.944-54.183,115.181c10.384,60.482,67.826,101.095,128.306,90.713
				C1057.885,378.265,1070.166,373.742,1081.176,367.42"/>
			<path fill="#130D0C" d="M939.447,293.806c-0.658-2.507-1.214-5.062-1.659-7.661c-0.879-5.118-1.302-10.206-1.304-15.228
				c-0.339-0.495-0.665-1.01-0.97-1.541c-4.778-8.305-5.144-20.8-0.921-32.234c3.557-9.631,10.074-17.718,17.438-21.946
				c2.014-1.156,4.088-2.022,6.183-2.553c5.007-5.807,10.762-10.98,17.161-15.366c-1.57-0.281-3.191-0.427-4.853-0.429
				c-5.713-0.008-11.432,1.752-16.812,4.841c-11.255,6.461-21.035,18.738-26.236,32.828c-7.691,20.826-5.202,45.147,8.247,56.605
				C936.914,292.138,938.158,293.031,939.447,293.806"/>
			<path fill="#130D0C" d="M1066.15,366.087c11.572-6.643,20.183-16.375,22.2-27.323c0.268-1.457,0.419-2.901,0.456-4.325
				c-5.47,5.44-11.664,10.195-18.467,14.101c-0.015,0.008-0.03,0.017-0.044,0.025c-2.481,4.977-7.057,9.403-12.822,12.712
				c-4.516,2.593-9.765,4.501-15.304,5.451c-12.661,2.175-25.551-0.877-32.659-7.833c-7.727-1.438-15.161-3.883-22.137-7.217
				c0.522,1.384,1.164,2.748,1.933,4.081c8.813,15.313,32.263,22.204,54.146,18.449
				C1051.547,372.82,1059.359,369.986,1066.15,366.087"/>
			<path fill="#A51A13" d="M1098.008,346.334c22.358-21.464,34.797-52.52,31.66-85.168c-0.676,3.389-1.704,6.641-3.133,9.694
				c-2.949,6.306-7.269,11.37-12.563,15.039c-0.652,3.87-1.559,7.673-2.702,11.382l1.474,1.86l4.918,1.69l-4.074,3.231l-1.687,4.918
				l-3.232-4.075l-0.116-0.042c-1.718,4.187-3.748,8.23-6.065,12.092c1.596,6.18,1.574,12.776-0.266,19.424
				C1101.27,339.829,1099.841,343.156,1098.008,346.334"/>
			<path fill="#A51A13" d="M1054.109,170.626c-14.482-4.09-30.08-5.093-45.902-2.378c-12.418,2.13-23.945,6.38-34.271,12.308
				c-2.709,1.555-5.332,3.225-7.87,5.002c3.071-0.987,6.19-1.641,9.331-1.916c7.059-0.607,13.714,0.656,19.616,3.51
				c4.894-1.79,10.019-3.179,15.33-4.114l-0.514-0.202l-5.103,0.993l1.914-4.832l-0.998-5.103l4.834,1.912l5.107-0.997l-1.916,4.829
				l0.548,2.802c4.324-0.573,8.625-0.82,12.872-0.766c2.265-2.27,4.827-4.237,7.658-5.862c2.908-1.67,6.103-2.978,9.549-3.874
				C1047.469,171.116,1050.754,170.695,1054.109,170.626"/>
			<path fill="#A51A13" d="M982.407,365.844c-2.654-2.316-5.001-4.884-6.972-7.702c-3.994-5.719-6.221-12.004-6.746-18.439
				c-3.413-2.836-6.619-5.932-9.587-9.257l-3.462,0.51l-3.919,3.419l-0.764-5.144l-3.415-3.921l5.146-0.76l0.969-0.844
				c-2.184-2.99-4.195-6.129-6.007-9.405c-6.192-1.697-11.934-5.028-16.803-9.975c-2.372-2.407-4.429-5.138-6.201-8.113
				C932.499,327.904,954.385,352.973,982.407,365.844"/>
			<path fill="#130D0C" d="M1114.909,263.826c0.961-1.163,1.841-2.426,2.63-3.786c8.852-15.29,3.09-39.043-11.101-56.117
				c-14.193-17.07-36.492-27.073-53.145-21.158c-1.513,0.539-2.951,1.192-4.295,1.945c7.503,2.017,14.667,4.998,21.326,8.824
				c9.998-0.843,21.967,5.24,30.279,15.237c1.783,2.144,3.358,4.422,4.707,6.771c4.912,8.564,6.811,18.086,4.777,25.67
				c1.66,4.707,2.946,9.619,3.819,14.703C1114.36,258.561,1114.695,261.202,1114.909,263.826"/>
			<path fill="#17628C" d="M936.485,270.916c0.004-21.845,8.051-42.407,21.73-58.273c-2.095,0.531-4.169,1.397-6.183,2.553
				c-7.364,4.228-13.88,12.315-17.438,21.946c-4.224,11.434-3.857,23.929,0.921,32.234
				C935.82,269.907,936.146,270.421,936.485,270.916 M1110.088,241.212c2.034-7.584,0.135-17.106-4.777-25.67
				c-1.349-2.349-2.924-4.627-4.707-6.771c-8.313-9.997-20.281-16.08-30.279-15.237
				C1088.457,203.954,1102.838,220.642,1110.088,241.212 M1057.474,361.278c5.764-3.309,10.34-7.735,12.822-12.712
				c-8.842,5.07-18.702,8.699-29.332,10.523c-10.73,1.842-21.34,1.688-31.452-0.193c7.107,6.956,19.997,10.008,32.659,7.833
				C1047.708,365.779,1052.957,363.871,1057.474,361.278"/>
		</g>
	</g>
</g>
</svg>
